<mxfile host="app.diagrams.net" modified="2024-06-17T18:01:55.233Z" agent="Mozilla/5.0 (Windows NT 10.0; Win64; x64) AppleWebKit/537.36 (KHTML, like Gecko) Chrome/123.0.0.0 Safari/537.36 OPR/109.0.0.0" etag="THu01_h8sxhFrYYPiUYb" version="24.5.4" type="device">
  <diagram id="C5RBs43oDa-KdzZeNtuy" name="Page-1">
    <mxGraphModel dx="1003" dy="640" grid="1" gridSize="10" guides="1" tooltips="1" connect="1" arrows="1" fold="1" page="1" pageScale="1" pageWidth="827" pageHeight="1169" math="0" shadow="0">
      <root>
        <mxCell id="WIyWlLk6GJQsqaUBKTNV-0" />
        <mxCell id="WIyWlLk6GJQsqaUBKTNV-1" parent="WIyWlLk6GJQsqaUBKTNV-0" />
        <mxCell id="C9Z2wbTBvSyo4Lh1Zctc-8" style="edgeStyle=orthogonalEdgeStyle;rounded=0;orthogonalLoop=1;jettySize=auto;html=1;exitX=0;exitY=0.5;exitDx=0;exitDy=0;" edge="1" parent="WIyWlLk6GJQsqaUBKTNV-1" source="C9Z2wbTBvSyo4Lh1Zctc-5" target="C9Z2wbTBvSyo4Lh1Zctc-7">
          <mxGeometry relative="1" as="geometry" />
        </mxCell>
        <mxCell id="C9Z2wbTBvSyo4Lh1Zctc-9" style="edgeStyle=orthogonalEdgeStyle;rounded=0;orthogonalLoop=1;jettySize=auto;html=1;exitX=1;exitY=0.5;exitDx=0;exitDy=0;" edge="1" parent="WIyWlLk6GJQsqaUBKTNV-1" source="C9Z2wbTBvSyo4Lh1Zctc-5" target="C9Z2wbTBvSyo4Lh1Zctc-6">
          <mxGeometry relative="1" as="geometry" />
        </mxCell>
        <mxCell id="C9Z2wbTBvSyo4Lh1Zctc-5" value="Home" style="rounded=0;whiteSpace=wrap;html=1;" vertex="1" parent="WIyWlLk6GJQsqaUBKTNV-1">
          <mxGeometry x="230" y="220" width="120" height="60" as="geometry" />
        </mxCell>
        <mxCell id="C9Z2wbTBvSyo4Lh1Zctc-12" style="edgeStyle=orthogonalEdgeStyle;rounded=0;orthogonalLoop=1;jettySize=auto;html=1;exitX=0;exitY=0.5;exitDx=0;exitDy=0;entryX=0.5;entryY=0;entryDx=0;entryDy=0;" edge="1" parent="WIyWlLk6GJQsqaUBKTNV-1" source="C9Z2wbTBvSyo4Lh1Zctc-6" target="C9Z2wbTBvSyo4Lh1Zctc-10">
          <mxGeometry relative="1" as="geometry" />
        </mxCell>
        <mxCell id="C9Z2wbTBvSyo4Lh1Zctc-6" value="Login" style="rounded=0;whiteSpace=wrap;html=1;" vertex="1" parent="WIyWlLk6GJQsqaUBKTNV-1">
          <mxGeometry x="330" y="340" width="120" height="60" as="geometry" />
        </mxCell>
        <mxCell id="C9Z2wbTBvSyo4Lh1Zctc-11" style="edgeStyle=orthogonalEdgeStyle;rounded=0;orthogonalLoop=1;jettySize=auto;html=1;exitX=1;exitY=0.5;exitDx=0;exitDy=0;entryX=0.5;entryY=0;entryDx=0;entryDy=0;" edge="1" parent="WIyWlLk6GJQsqaUBKTNV-1" source="C9Z2wbTBvSyo4Lh1Zctc-7" target="C9Z2wbTBvSyo4Lh1Zctc-10">
          <mxGeometry relative="1" as="geometry" />
        </mxCell>
        <mxCell id="C9Z2wbTBvSyo4Lh1Zctc-7" value="Cadastro" style="rounded=0;whiteSpace=wrap;html=1;" vertex="1" parent="WIyWlLk6GJQsqaUBKTNV-1">
          <mxGeometry x="130" y="340" width="120" height="60" as="geometry" />
        </mxCell>
        <mxCell id="C9Z2wbTBvSyo4Lh1Zctc-15" style="edgeStyle=orthogonalEdgeStyle;rounded=0;orthogonalLoop=1;jettySize=auto;html=1;exitX=0;exitY=0.5;exitDx=0;exitDy=0;entryX=0.5;entryY=0;entryDx=0;entryDy=0;" edge="1" parent="WIyWlLk6GJQsqaUBKTNV-1" source="C9Z2wbTBvSyo4Lh1Zctc-10" target="C9Z2wbTBvSyo4Lh1Zctc-14">
          <mxGeometry relative="1" as="geometry" />
        </mxCell>
        <mxCell id="C9Z2wbTBvSyo4Lh1Zctc-25" value="Text" style="edgeLabel;html=1;align=center;verticalAlign=middle;resizable=0;points=[];" vertex="1" connectable="0" parent="C9Z2wbTBvSyo4Lh1Zctc-15">
          <mxGeometry x="-0.3937" y="1" relative="1" as="geometry">
            <mxPoint as="offset" />
          </mxGeometry>
        </mxCell>
        <mxCell id="C9Z2wbTBvSyo4Lh1Zctc-26" value="Não" style="edgeLabel;html=1;align=center;verticalAlign=middle;resizable=0;points=[];" vertex="1" connectable="0" parent="C9Z2wbTBvSyo4Lh1Zctc-15">
          <mxGeometry x="-0.3729" y="-1" relative="1" as="geometry">
            <mxPoint as="offset" />
          </mxGeometry>
        </mxCell>
        <mxCell id="C9Z2wbTBvSyo4Lh1Zctc-30" style="edgeStyle=orthogonalEdgeStyle;rounded=0;orthogonalLoop=1;jettySize=auto;html=1;exitX=1;exitY=0.5;exitDx=0;exitDy=0;entryX=0.5;entryY=0;entryDx=0;entryDy=0;" edge="1" parent="WIyWlLk6GJQsqaUBKTNV-1" source="C9Z2wbTBvSyo4Lh1Zctc-10" target="C9Z2wbTBvSyo4Lh1Zctc-28">
          <mxGeometry relative="1" as="geometry" />
        </mxCell>
        <mxCell id="C9Z2wbTBvSyo4Lh1Zctc-38" value="Sim" style="edgeLabel;html=1;align=center;verticalAlign=middle;resizable=0;points=[];" vertex="1" connectable="0" parent="C9Z2wbTBvSyo4Lh1Zctc-30">
          <mxGeometry x="-0.4235" y="-2" relative="1" as="geometry">
            <mxPoint as="offset" />
          </mxGeometry>
        </mxCell>
        <mxCell id="C9Z2wbTBvSyo4Lh1Zctc-10" value="É CLIENTE?" style="rhombus;whiteSpace=wrap;html=1;" vertex="1" parent="WIyWlLk6GJQsqaUBKTNV-1">
          <mxGeometry x="250" y="460" width="80" height="80" as="geometry" />
        </mxCell>
        <mxCell id="C9Z2wbTBvSyo4Lh1Zctc-18" style="edgeStyle=orthogonalEdgeStyle;rounded=0;orthogonalLoop=1;jettySize=auto;html=1;exitX=0;exitY=0.5;exitDx=0;exitDy=0;entryX=0;entryY=0.5;entryDx=0;entryDy=0;" edge="1" parent="WIyWlLk6GJQsqaUBKTNV-1" source="C9Z2wbTBvSyo4Lh1Zctc-14" target="C9Z2wbTBvSyo4Lh1Zctc-16">
          <mxGeometry relative="1" as="geometry" />
        </mxCell>
        <mxCell id="C9Z2wbTBvSyo4Lh1Zctc-20" style="edgeStyle=orthogonalEdgeStyle;rounded=0;orthogonalLoop=1;jettySize=auto;html=1;exitX=0;exitY=0.5;exitDx=0;exitDy=0;entryX=0;entryY=0.5;entryDx=0;entryDy=0;" edge="1" parent="WIyWlLk6GJQsqaUBKTNV-1" source="C9Z2wbTBvSyo4Lh1Zctc-14" target="C9Z2wbTBvSyo4Lh1Zctc-19">
          <mxGeometry relative="1" as="geometry" />
        </mxCell>
        <mxCell id="C9Z2wbTBvSyo4Lh1Zctc-22" style="edgeStyle=orthogonalEdgeStyle;rounded=0;orthogonalLoop=1;jettySize=auto;html=1;exitX=0;exitY=0.5;exitDx=0;exitDy=0;entryX=0;entryY=0.5;entryDx=0;entryDy=0;" edge="1" parent="WIyWlLk6GJQsqaUBKTNV-1" source="C9Z2wbTBvSyo4Lh1Zctc-14" target="C9Z2wbTBvSyo4Lh1Zctc-21">
          <mxGeometry relative="1" as="geometry" />
        </mxCell>
        <mxCell id="C9Z2wbTBvSyo4Lh1Zctc-14" value="Meus aplicativos" style="rounded=0;whiteSpace=wrap;html=1;" vertex="1" parent="WIyWlLk6GJQsqaUBKTNV-1">
          <mxGeometry x="80" y="550" width="120" height="60" as="geometry" />
        </mxCell>
        <mxCell id="C9Z2wbTBvSyo4Lh1Zctc-16" value="Cadastro/edição de aplicativos" style="rounded=0;whiteSpace=wrap;html=1;" vertex="1" parent="WIyWlLk6GJQsqaUBKTNV-1">
          <mxGeometry x="80" y="640" width="120" height="60" as="geometry" />
        </mxCell>
        <mxCell id="C9Z2wbTBvSyo4Lh1Zctc-19" value="Lista de clientes" style="rounded=0;whiteSpace=wrap;html=1;" vertex="1" parent="WIyWlLk6GJQsqaUBKTNV-1">
          <mxGeometry x="80" y="730" width="120" height="60" as="geometry" />
        </mxCell>
        <mxCell id="C9Z2wbTBvSyo4Lh1Zctc-21" value="Planos oferecidos" style="rounded=0;whiteSpace=wrap;html=1;" vertex="1" parent="WIyWlLk6GJQsqaUBKTNV-1">
          <mxGeometry x="80" y="820" width="120" height="60" as="geometry" />
        </mxCell>
        <mxCell id="C9Z2wbTBvSyo4Lh1Zctc-33" style="edgeStyle=orthogonalEdgeStyle;rounded=0;orthogonalLoop=1;jettySize=auto;html=1;exitX=0.5;exitY=1;exitDx=0;exitDy=0;entryX=0.5;entryY=0;entryDx=0;entryDy=0;" edge="1" parent="WIyWlLk6GJQsqaUBKTNV-1" source="C9Z2wbTBvSyo4Lh1Zctc-27" target="C9Z2wbTBvSyo4Lh1Zctc-32">
          <mxGeometry relative="1" as="geometry" />
        </mxCell>
        <mxCell id="C9Z2wbTBvSyo4Lh1Zctc-27" value="Loja de aplicativos" style="rounded=0;whiteSpace=wrap;html=1;" vertex="1" parent="WIyWlLk6GJQsqaUBKTNV-1">
          <mxGeometry x="390" y="730" width="120" height="60" as="geometry" />
        </mxCell>
        <mxCell id="C9Z2wbTBvSyo4Lh1Zctc-31" style="edgeStyle=orthogonalEdgeStyle;rounded=0;orthogonalLoop=1;jettySize=auto;html=1;exitX=1;exitY=0.5;exitDx=0;exitDy=0;entryX=1;entryY=0.5;entryDx=0;entryDy=0;" edge="1" parent="WIyWlLk6GJQsqaUBKTNV-1" source="C9Z2wbTBvSyo4Lh1Zctc-28" target="C9Z2wbTBvSyo4Lh1Zctc-27">
          <mxGeometry relative="1" as="geometry" />
        </mxCell>
        <mxCell id="C9Z2wbTBvSyo4Lh1Zctc-37" style="edgeStyle=orthogonalEdgeStyle;rounded=0;orthogonalLoop=1;jettySize=auto;html=1;exitX=1;exitY=0.5;exitDx=0;exitDy=0;entryX=1;entryY=0.5;entryDx=0;entryDy=0;" edge="1" parent="WIyWlLk6GJQsqaUBKTNV-1" source="C9Z2wbTBvSyo4Lh1Zctc-28" target="C9Z2wbTBvSyo4Lh1Zctc-36">
          <mxGeometry relative="1" as="geometry" />
        </mxCell>
        <mxCell id="C9Z2wbTBvSyo4Lh1Zctc-28" value="Minha conta" style="rounded=0;whiteSpace=wrap;html=1;" vertex="1" parent="WIyWlLk6GJQsqaUBKTNV-1">
          <mxGeometry x="390" y="550" width="120" height="60" as="geometry" />
        </mxCell>
        <mxCell id="C9Z2wbTBvSyo4Lh1Zctc-35" style="edgeStyle=orthogonalEdgeStyle;rounded=0;orthogonalLoop=1;jettySize=auto;html=1;exitX=0.5;exitY=1;exitDx=0;exitDy=0;entryX=0.5;entryY=0;entryDx=0;entryDy=0;" edge="1" parent="WIyWlLk6GJQsqaUBKTNV-1" source="C9Z2wbTBvSyo4Lh1Zctc-32">
          <mxGeometry relative="1" as="geometry">
            <mxPoint x="450" y="930" as="targetPoint" />
          </mxGeometry>
        </mxCell>
        <mxCell id="C9Z2wbTBvSyo4Lh1Zctc-32" value="Nova assinatura" style="rounded=0;whiteSpace=wrap;html=1;" vertex="1" parent="WIyWlLk6GJQsqaUBKTNV-1">
          <mxGeometry x="390" y="830" width="120" height="60" as="geometry" />
        </mxCell>
        <mxCell id="C9Z2wbTBvSyo4Lh1Zctc-39" style="edgeStyle=orthogonalEdgeStyle;rounded=0;orthogonalLoop=1;jettySize=auto;html=1;exitX=0;exitY=0.5;exitDx=0;exitDy=0;entryX=0;entryY=0.5;entryDx=0;entryDy=0;" edge="1" parent="WIyWlLk6GJQsqaUBKTNV-1" source="C9Z2wbTBvSyo4Lh1Zctc-34" target="C9Z2wbTBvSyo4Lh1Zctc-36">
          <mxGeometry relative="1" as="geometry" />
        </mxCell>
        <mxCell id="C9Z2wbTBvSyo4Lh1Zctc-34" value="Pagamento" style="rounded=0;whiteSpace=wrap;html=1;" vertex="1" parent="WIyWlLk6GJQsqaUBKTNV-1">
          <mxGeometry x="390" y="930" width="120" height="60" as="geometry" />
        </mxCell>
        <mxCell id="C9Z2wbTBvSyo4Lh1Zctc-36" value="Minhas assinaturas" style="rounded=0;whiteSpace=wrap;html=1;" vertex="1" parent="WIyWlLk6GJQsqaUBKTNV-1">
          <mxGeometry x="390" y="640" width="120" height="60" as="geometry" />
        </mxCell>
        <mxCell id="C9Z2wbTBvSyo4Lh1Zctc-40" value="Aplicação Web" style="swimlane;whiteSpace=wrap;html=1;fillColor=#ffe6cc;strokeColor=#d79b00;" vertex="1" parent="WIyWlLk6GJQsqaUBKTNV-1">
          <mxGeometry x="40" y="180" width="510" height="840" as="geometry" />
        </mxCell>
        <mxCell id="C9Z2wbTBvSyo4Lh1Zctc-45" style="edgeStyle=orthogonalEdgeStyle;rounded=0;orthogonalLoop=1;jettySize=auto;html=1;exitX=0.5;exitY=1;exitDx=0;exitDy=0;entryX=0.5;entryY=0;entryDx=0;entryDy=0;" edge="1" parent="WIyWlLk6GJQsqaUBKTNV-1" source="C9Z2wbTBvSyo4Lh1Zctc-41" target="C9Z2wbTBvSyo4Lh1Zctc-44">
          <mxGeometry relative="1" as="geometry" />
        </mxCell>
        <mxCell id="C9Z2wbTBvSyo4Lh1Zctc-41" value="Preload" style="rounded=0;whiteSpace=wrap;html=1;" vertex="1" parent="WIyWlLk6GJQsqaUBKTNV-1">
          <mxGeometry x="640" y="230" width="120" height="60" as="geometry" />
        </mxCell>
        <mxCell id="C9Z2wbTBvSyo4Lh1Zctc-51" style="edgeStyle=orthogonalEdgeStyle;rounded=0;orthogonalLoop=1;jettySize=auto;html=1;exitX=0.5;exitY=1;exitDx=0;exitDy=0;entryX=0.5;entryY=0;entryDx=0;entryDy=0;" edge="1" parent="WIyWlLk6GJQsqaUBKTNV-1" source="C9Z2wbTBvSyo4Lh1Zctc-44" target="C9Z2wbTBvSyo4Lh1Zctc-49">
          <mxGeometry relative="1" as="geometry" />
        </mxCell>
        <mxCell id="C9Z2wbTBvSyo4Lh1Zctc-44" value="Login" style="rounded=0;whiteSpace=wrap;html=1;" vertex="1" parent="WIyWlLk6GJQsqaUBKTNV-1">
          <mxGeometry x="640" y="350" width="120" height="60" as="geometry" />
        </mxCell>
        <mxCell id="C9Z2wbTBvSyo4Lh1Zctc-52" style="edgeStyle=orthogonalEdgeStyle;rounded=0;orthogonalLoop=1;jettySize=auto;html=1;exitX=0.5;exitY=1;exitDx=0;exitDy=0;entryX=0.5;entryY=0;entryDx=0;entryDy=0;" edge="1" parent="WIyWlLk6GJQsqaUBKTNV-1" source="C9Z2wbTBvSyo4Lh1Zctc-49" target="C9Z2wbTBvSyo4Lh1Zctc-50">
          <mxGeometry relative="1" as="geometry" />
        </mxCell>
        <mxCell id="C9Z2wbTBvSyo4Lh1Zctc-49" value="Home" style="rounded=0;whiteSpace=wrap;html=1;" vertex="1" parent="WIyWlLk6GJQsqaUBKTNV-1">
          <mxGeometry x="640" y="470" width="120" height="60" as="geometry" />
        </mxCell>
        <mxCell id="C9Z2wbTBvSyo4Lh1Zctc-50" value="..." style="rounded=0;whiteSpace=wrap;html=1;" vertex="1" parent="WIyWlLk6GJQsqaUBKTNV-1">
          <mxGeometry x="640" y="585" width="120" height="60" as="geometry" />
        </mxCell>
        <mxCell id="C9Z2wbTBvSyo4Lh1Zctc-53" value="Aplicação Mobile" style="swimlane;whiteSpace=wrap;html=1;fillColor=#dae8fc;strokeColor=#6c8ebf;" vertex="1" parent="WIyWlLk6GJQsqaUBKTNV-1">
          <mxGeometry x="600" y="180" width="200" height="490" as="geometry">
            <mxRectangle x="600" y="180" width="130" height="30" as="alternateBounds" />
          </mxGeometry>
        </mxCell>
      </root>
    </mxGraphModel>
  </diagram>
</mxfile>
